<svg width="20" height="16" viewBox="0 0 20 16" fill="none" xmlns="http://www.w3.org/2000/svg">
<path d="M18.0625 13.2572L12.25 8.00413M7.25 8.00413L1.43753 13.2572M1 3.62655L8.1443 8.63051C8.72283 9.03572 9.01209 9.23832 9.32673 9.3168C9.60466 9.38612 9.89534 9.38612 10.1733 9.3168C10.4879 9.23832 10.7772 9.03572 11.3557 8.63051L18.5 3.62655M5.2 15.0083H14.3C15.7701 15.0083 16.5052 15.0083 17.0667 14.722C17.5606 14.4702 17.9622 14.0684 18.2139 13.5741C18.5 13.0123 18.5 12.2768 18.5 10.8058V5.20248C18.5 3.73147 18.5 2.99597 18.2139 2.43412C17.9622 1.9399 17.5606 1.53809 17.0667 1.28628C16.5052 1 15.7701 1 14.3 1H5.2C3.72986 1 2.99479 1 2.43327 1.28628C1.93935 1.53809 1.53778 1.9399 1.28611 2.43412C1 2.99597 1 3.73147 1 5.20248V10.8058C1 12.2768 1 13.0123 1.28611 13.5741C1.53778 14.0684 1.93935 14.4702 2.43327 14.722C2.99479 15.0083 3.72986 15.0083 5.2 15.0083Z" stroke="white" stroke-width="1.5" stroke-linecap="round" stroke-linejoin="round"/>
</svg>
