<svg width="20" height="20" viewBox="0 0 20 20" fill="none" xmlns="http://www.w3.org/2000/svg">
<path d="M4.25 11.9146C2.63006 12.6297 1.625 13.6261 1.625 14.7282C1.625 16.9041 5.54251 18.668 10.375 18.668C15.2075 18.668 19.125 16.9041 19.125 14.7282C19.125 13.6261 18.1199 12.6297 16.5 11.9146M15.625 6.41081C15.625 9.96865 11.6875 11.6639 10.375 14.2905C9.0625 11.6639 5.125 9.96865 5.125 6.41081C5.125 3.50961 7.4755 1.15771 10.375 1.15771C13.2745 1.15771 15.625 3.50961 15.625 6.41081ZM11.25 6.41081C11.25 6.89435 10.8582 7.28633 10.375 7.28633C9.89175 7.28633 9.5 6.89435 9.5 6.41081C9.5 5.92728 9.89175 5.5353 10.375 5.5353C10.8582 5.5353 11.25 5.92728 11.25 6.41081Z" stroke="white" stroke-width="1.5" stroke-linecap="round" stroke-linejoin="round"/>
</svg>
