<svg width="19" height="19" viewBox="0 0 19 19" fill="none" xmlns="http://www.w3.org/2000/svg">
<path d="M5.76927 6.6557C6.37826 7.92486 7.20845 9.11438 8.25983 10.1664C9.31122 11.2184 10.5 12.0491 11.7684 12.6584C11.8775 12.7108 11.9321 12.737 12.0011 12.7572C12.2464 12.8287 12.5477 12.7773 12.7554 12.6285C12.8139 12.5866 12.8639 12.5366 12.9639 12.4365C13.2698 12.1304 13.4228 11.9773 13.5766 11.8773C14.1566 11.4999 14.9044 11.4999 15.4844 11.8773C15.6382 11.9773 15.7912 12.1304 16.0971 12.4365L16.2676 12.6071C16.7326 13.0724 16.9651 13.305 17.0914 13.5549C17.3426 14.0518 17.3426 14.6386 17.0914 15.1355C16.9651 15.3854 16.7326 15.618 16.2676 16.0833L16.1296 16.2213C15.6662 16.685 15.4345 16.9169 15.1195 17.0939C14.7699 17.2904 14.227 17.4317 13.826 17.4305C13.4647 17.4294 13.2178 17.3593 12.7239 17.219C10.0696 16.4652 7.56508 15.043 5.4756 12.9523C3.38612 10.8615 1.9647 8.35549 1.21135 5.69971C1.07117 5.20552 1.00108 4.95843 1.00001 4.59689C0.998814 4.19571 1.14001 3.65246 1.33637 3.30269C1.51334 2.98747 1.74505 2.75563 2.20847 2.29193L2.3464 2.15392C2.81141 1.68863 3.04392 1.45599 3.29363 1.32961C3.79024 1.07828 4.37673 1.07828 4.87334 1.32961C5.12305 1.45599 5.35556 1.68863 5.82057 2.15392L5.99108 2.32453C6.29699 2.63062 6.44994 2.78366 6.54994 2.93756C6.92706 3.51793 6.92706 4.26613 6.54994 4.8465C6.44994 5.0004 6.29698 5.15344 5.99108 5.45952C5.89106 5.55961 5.84104 5.60965 5.79918 5.66814C5.65042 5.87602 5.59906 6.17742 5.67057 6.42287C5.69069 6.49195 5.71688 6.54653 5.76927 6.6557Z" stroke="white" stroke-width="1.5" stroke-linecap="round" stroke-linejoin="round"/>
</svg>
